<svg width="125" height="180" viewBox="0 0 125 180" fill="none" xmlns="http://www.w3.org/2000/svg">
<path d="M42.1345 71.7627C32.8359 42.3932 10.1704 17.9831 0 9.44915L33.9013 8L67.3184 88.1864L87.6592 9.44915H108C108 13.9576 103.932 37.0797 87.6592 93.5C71.3866 149.92 62.7982 174.008 60.5381 179C58.278 155.492 51.4332 101.132 42.1345 71.7627Z" fill="#F13C1F"/>
<path d="M19.5 0L1.5 9.5H34.5C39.6667 6.33333 50.5 0 50.5 0H19.5Z" fill="#C5CBE3"/>
<path d="M105 0L87 9.5H108C113.167 6.33333 125 0 125 0H105Z" fill="#C5CBE3"/>
<path d="M74 62.5L50 0L34 9.5L67.5 89L74 62.5Z" fill="#4056A1"/>
<path d="M77 179.5C87.3333 153 111.4 79.6 125 0L107.5 9.5C102 47 74.5 138 60.5 179L77 179.5Z" fill="#4056A1"/>
</svg>
